<?xml version="1.0" standalone="no"?><!DOCTYPE svg PUBLIC "-//W3C//DTD SVG 1.1//EN" "http://www.w3.org/Graphics/SVG/1.1/DTD/svg11.dtd"><svg t="1565317812291" class="icon" viewBox="0 0 1024 1024" version="1.1" xmlns="http://www.w3.org/2000/svg" p-id="925" xmlns:xlink="http://www.w3.org/1999/xlink" width="200" height="200"><defs><style type="text/css"></style></defs><path d="M628.4 657.9c0.1-0.2 0.2-0.4 0.3-0.5 8.8-16.1 1.3-36.3-16-42.5-2.1-0.7-4.1-1.4-6.2-2.1-1.9-0.6-3.9-1.3-5.9-1.9 18.2-11.1 35.1-24.4 50.6-39.8 50.6-50.6 78.5-117.9 78.5-189.5s-27.9-138.9-78.5-189.5c-50.5-50.5-117.8-78.4-189.4-78.4s-138.9 27.9-189.5 78.5c-50.6 50.6-78.5 117.9-78.5 189.5 0 47.9 12.8 94.8 37 135.9 8.4 14.3 26.8 19 41.1 10.6s19-26.8 10.6-41.1c-18.7-31.8-28.7-68.3-28.7-105.4 0-114.9 93.6-208.3 208.5-208 114 0.3 207.2 93.4 207.5 207.5 0.3 114.9-93.1 208.5-208 208.5-4.3 0-8.4 0.9-12.1 2.6-36.5 1.2-71.1 7.6-103 19.2-34.2 12.4-66.2 31.1-95.4 55.6-52.7 44.3-97.6 108.3-137.2 195.8-6.8 15.1-0.1 32.9 14.9 39.7 4 1.8 8.2 2.7 12.4 2.7 11.4 0 22.3-6.6 27.3-17.6 73.8-162.8 164.2-235.5 293-235.5 50.6 0 93.4 6.2 130.6 19.4 13.8 4.9 29.2-0.8 36.1-13.7zM889.2 774.5h-53.7L794.7 731c28.6-14.7 48.2-44.5 48.2-78.8 0-48.8-39.7-88.5-88.5-88.5s-88.5 39.7-88.5 88.5c0 34.4 19.8 64.3 48.6 79l-41.1 43.4h-53.7c-15 0-27.2 12.2-27.2 27.2v53.7c0 15 12.2 27.2 27.2 27.2h269.6c15 0 27.2-12.2 27.2-27.2v-53.7c-0.2-15.1-12.4-27.3-27.3-27.3zM708.4 652.2c0-25.4 20.6-46 46-46s46 20.6 46 46-20.6 46-46 46-46-20.6-46-46z m68.9 122.3h-45.4l22.8-24.1 22.6 24.1z m96.6 65.6h-239V817h239v23.1z" p-id="926"></path></svg>