<?xml version="1.0" ?><svg style="enable-background:new 0 0 128 128;" version="1.1" viewBox="0 0 128 128" xml:space="preserve" xmlns="http://www.w3.org/2000/svg" xmlns:xlink="http://www.w3.org/1999/xlink"><style type="text/css">
	.st0{fill:#FFFFFF;}
	.st1{fill:#2B1100;}
	.st2{fill:#FFCC64;}
	.st3{fill:#FFE6C2;}
	.st4{fill:#F9B43A;}
	.st5{fill:#44AC3D;}
	.st6{fill:#64C35B;}
	.st7{fill:#237F19;}
	.st8{fill:#631A28;}
	.st9{fill:#0087FF;}
	.st10{fill:#26A7FF;}
	.st11{fill:#005DEB;}
	.st12{fill:#D7F4FF;}
	.st13{fill:#3ACCF9;}
	.st14{fill:#74D2F7;}
	.st15{fill:#FF2641;}
	.st16{fill:#C32545;}
	.st17{fill:#FF655A;}
	.st18{fill:#C7CAD1;}
	.st19{fill:#F2F2F2;}
	.st20{fill:none;stroke:#2B1100;stroke-width:4;stroke-linecap:round;stroke-linejoin:round;stroke-miterlimit:10;}
</style><g id="AI_in_agriculture"/><g id="AI_in_healthcare"/><g id="AI_in_finance"/><g id="AI_in_eductaion"/><g id="process_lists_and_file_storage"/><g id="ERP_transactions"/><g id="data_format_conversionser"><g><g><g><path class="st9" d="M85.896,101.08c0,2.162-1.698,3.915-3.791,3.915H38.192c-2.094,0-3.791-1.753-3.791-3.915      V38.794c0-2.162,1.698-3.915,3.791-3.915H70.73c0.34,0,0.566,0.292,0.566,0.584v9.232c0,2.863,2.264,5.259,5.093,5.259h8.941      c0.34,0,0.566,0.292,0.566,0.584V101.08z" id="XMLID_313_"/><g><path class="st12" d="M71.296,34.879v9.875c0,2.863,2.264,5.259,5.093,5.259h9.507L71.296,34.879z"/><path class="st1" d="M85.896,52.013h-9.507c-3.911,0-7.093-3.256-7.093-7.259v-9.875c0-0.815,0.495-1.549,1.251-1.854       c0.757-0.305,1.621-0.121,2.188,0.466l14.6,15.134c0.557,0.577,0.715,1.432,0.401,2.171       C87.423,51.533,86.698,52.013,85.896,52.013z M73.296,39.833v4.921c0,1.797,1.388,3.259,3.093,3.259h4.799L73.296,39.833z"/></g><path class="st10" d="M37.449,93.824L37.449,93.824c-1.683,0-3.048-1.344-3.048-3.003V41.196c0-3.483,2.795-6.317,6.229-6.317      h29.49c1.683,0,3.048,1.344,3.048,3.003v0c0,1.658-1.365,3.003-3.048,3.003H41.849c-0.746,0-1.353,0.679-1.353,1.512v48.424      C40.496,92.479,39.132,93.824,37.449,93.824z"/><path class="st11" d="M82.848,66.999c-1.683,0-3.048,1.344-3.048,3.003v27.853c0,0.014-0.009,0.025-0.009,0.039v1.096H37.756      c-1.594,0-3.047,1.13-3.206,2.693c-0.183,1.797,1.245,3.312,3.032,3.312h42.209v0.169c3.39-0.157,6.104-2.824,6.104-6.108      V70.002C85.896,68.343,84.531,66.999,82.848,66.999z"/><path class="st1" d="M82.104,106.995H38.192c-3.193,0-5.791-2.653-5.791-5.915V38.794c0-3.262,2.598-5.915,5.791-5.915H70.73      c1.415,0,2.565,1.159,2.565,2.584v9.232c0,1.797,1.388,3.259,3.093,3.259h8.941c1.415,0,2.565,1.159,2.565,2.584v50.542      C87.896,104.342,85.298,106.995,82.104,106.995z M38.192,36.879c-0.987,0-1.791,0.859-1.791,1.915v62.286      c0,1.056,0.804,1.915,1.791,1.915h43.912c0.987,0,1.791-0.859,1.791-1.915V51.954h-7.507c-3.911,0-7.093-3.256-7.093-7.259      v-7.816H38.192z"/></g><g><g><path class="st2" d="M97.599,89.198c0,2.162-1.698,3.915-3.791,3.915H49.896c-2.094,0-3.791-1.753-3.791-3.915       V26.912c0-2.162,1.698-3.915,3.791-3.915h32.538c0.34,0,0.566,0.292,0.566,0.584v9.232c0,2.863,2.264,5.259,5.093,5.259h8.941       c0.34,0,0.566,0.292,0.566,0.584V89.198z" id="XMLID_311_"/><g><path class="st3" d="M82.999,22.997v9.875c0,2.863,2.264,5.259,5.093,5.259h9.507L82.999,22.997z"/><path class="st1" d="M97.599,40.13h-9.506c-3.911,0-7.094-3.256-7.094-7.259v-9.874c0-0.815,0.495-1.549,1.251-1.854        c0.758-0.304,1.622-0.122,2.188,0.466l14.6,15.133c0.557,0.577,0.715,1.432,0.401,2.171        C99.126,39.65,98.401,40.13,97.599,40.13z M84.999,27.95v4.921c0,1.797,1.388,3.259,3.094,3.259h4.797L84.999,27.95z"/></g><path class="st3" d="M48.948,77.997L48.948,77.997c-1.571,0-2.844-1.254-2.844-2.802V28.891c0-3.25,2.608-5.894,5.812-5.894       h27.517c1.571,0,2.844,1.254,2.844,2.802v0c0,1.547-1.273,2.802-2.844,2.802H53.054c-0.696,0-1.262,0.633-1.262,1.411v45.184       C51.792,76.743,50.519,77.997,48.948,77.997z"/><path class="st4" d="M94.964,60.113c-1.455,0-2.635,1.162-2.635,2.596v24.084c0,0.012-0.007,0.022-0.008,0.033v0.948H55.974       c-1.379,0-2.635,0.977-2.772,2.329c-0.158,1.554,1.077,2.864,2.622,2.864h36.497v0.146c2.931-0.136,5.278-2.442,5.278-5.281       V62.709C97.599,61.275,96.419,60.113,94.964,60.113z"/><path class="st1" d="M93.808,95.112H49.896c-3.193,0-5.791-2.653-5.791-5.914V26.912c0-3.262,2.598-5.915,5.791-5.915h32.538       c1.415,0,2.565,1.159,2.565,2.584v9.232c0,1.797,1.388,3.259,3.094,3.259h8.94c1.415,0,2.565,1.159,2.565,2.584V52.47       c0,1.104-0.896,2-2,2s-2-0.896-2-2V40.072h-7.506c-3.911,0-7.094-3.256-7.094-7.259v-7.816H49.896       c-0.987,0-1.791,0.859-1.791,1.915v62.286c0,1.056,0.804,1.914,1.791,1.914h43.912c0.987,0,1.791-0.858,1.791-1.914V62.884       c0-1.104,0.896-2,2-2s2,0.896,2,2v26.314C99.599,92.459,97.001,95.112,93.808,95.112z"/></g><g><path class="st1" d="M86.93,84.303H56.773c-1.104,0-2-0.896-2-2s0.896-2,2-2H86.93c1.104,0,2,0.896,2,2       S88.034,84.303,86.93,84.303z"/><path class="st1" d="M86.93,72.616H56.773c-1.104,0-2-0.896-2-2s0.896-2,2-2H86.93c1.104,0,2,0.896,2,2       S88.034,72.616,86.93,72.616z"/><path class="st1" d="M86.93,60.931H56.773c-1.104,0-2-0.896-2-2s0.896-2,2-2H86.93c1.104,0,2,0.896,2,2       S88.034,60.931,86.93,60.931z"/><path class="st1" d="M86.93,49.244H56.773c-1.104,0-2-0.896-2-2s0.896-2,2-2H86.93c1.104,0,2,0.896,2,2       S88.034,49.244,86.93,49.244z"/></g></g></g><g><path class="st1" d="M6.919,99.574c-0.114,0-0.23-0.01-0.347-0.03c-1.088-0.19-1.815-1.227-1.625-2.314L7.162,84.58     c0.109-0.629,0.514-1.167,1.086-1.449c0.571-0.281,1.245-0.273,1.811,0.021l11.492,6.013c0.979,0.513,1.357,1.721,0.846,2.699     c-0.513,0.979-1.721,1.356-2.699,0.846l-9.067-4.744l-1.743,9.953C8.717,98.891,7.873,99.574,6.919,99.574z"/><path class="st1" d="M64.613,126c-25.382,0-48.432-16.228-57.357-40.379c-0.383-1.036,0.146-2.187,1.183-2.569     c1.035-0.383,2.187,0.146,2.569,1.183C19.355,106.823,40.897,122,64.613,122c31.57,0,57.254-26.147,57.254-58.286     c0-1.104,0.896-2,2-2s2,0.896,2,2C125.867,98.059,98.389,126,64.613,126z"/><path class="st1" d="M124,65.748c-1.104,0-2-0.896-2-2c0-3.229-0.27-6.464-0.801-9.617c-0.183-1.089,0.551-2.121,1.641-2.305     c1.084-0.183,2.12,0.552,2.305,1.641c0.567,3.372,0.855,6.831,0.855,10.281C126,64.853,125.104,65.748,124,65.748z M4,65.748     c-1.104,0-2-0.896-2-2c0-2.813,0.192-5.646,0.571-8.417c0.149-1.096,1.168-1.861,2.252-1.711c1.095,0.149,1.86,1.158,1.711,2.252     C6.18,58.466,6,61.115,6,63.748C6,64.853,5.104,65.748,4,65.748z M6.737,47.859c-0.199,0-0.401-0.03-0.602-0.093     c-1.054-0.332-1.639-1.455-1.308-2.509c1.03-3.273,2.349-6.486,3.92-9.549c0.503-0.982,1.708-1.372,2.691-0.867     c0.983,0.504,1.371,1.709,0.867,2.691c-1.468,2.863-2.7,5.866-3.662,8.926C8.375,47.313,7.587,47.859,6.737,47.859z      M120.69,46.129c-0.827,0-1.601-0.518-1.889-1.342c-1.058-3.03-2.382-5.995-3.938-8.813c-0.534-0.968-0.183-2.184,0.784-2.718     s2.184-0.183,2.718,0.784c1.664,3.015,3.081,6.187,4.213,9.428c0.363,1.043-0.187,2.184-1.229,2.548     C121.132,46.093,120.909,46.129,120.69,46.129z M15.806,30.149c-0.415,0-0.835-0.129-1.193-0.396     c-0.886-0.661-1.068-1.914-0.408-2.799c2.054-2.753,4.354-5.354,6.837-7.73c0.798-0.763,2.063-0.734,2.828,0.063     c0.764,0.798,0.735,2.064-0.063,2.828c-2.323,2.224-4.476,4.656-6.396,7.23C17.019,29.872,16.416,30.149,15.806,30.149z      M111.075,28.697c-0.589,0-1.172-0.259-1.566-0.756c-1.999-2.515-4.225-4.881-6.614-7.032c-0.82-0.739-0.887-2.004-0.147-2.825     c0.74-0.82,2.004-0.885,2.825-0.147c2.553,2.3,4.931,4.828,7.067,7.517c0.688,0.864,0.544,2.122-0.321,2.81     C111.951,28.556,111.512,28.697,111.075,28.697z M30.188,16.385c-0.64,0-1.269-0.306-1.655-0.875     c-0.621-0.913-0.385-2.157,0.528-2.778c2.845-1.937,5.869-3.645,8.987-5.078c1.002-0.462,2.19-0.021,2.652,0.982     c0.461,1.004,0.021,2.191-0.982,2.652c-2.917,1.341-5.745,2.938-8.407,4.75C30.968,16.272,30.576,16.385,30.188,16.385z      M96.282,15.378c-0.367,0-0.739-0.101-1.072-0.313c-2.715-1.729-5.589-3.239-8.542-4.488c-1.018-0.43-1.493-1.604-1.063-2.621     c0.43-1.018,1.602-1.491,2.621-1.063c3.157,1.335,6.229,2.949,9.132,4.797c0.932,0.594,1.206,1.83,0.613,2.762     C97.59,15.051,96.943,15.378,96.282,15.378z M48.279,8.072c-0.882,0-1.689-0.588-1.93-1.48c-0.288-1.066,0.344-2.164,1.41-2.451     c3.311-0.893,6.726-1.514,10.15-1.847c1.1-0.115,2.077,0.697,2.184,1.797c0.107,1.1-0.697,2.077-1.797,2.184     c-3.204,0.313-6.399,0.894-9.496,1.728C48.627,8.05,48.451,8.072,48.279,8.072z M77.961,7.626c-0.153,0-0.309-0.018-0.464-0.054     c-3.117-0.739-6.329-1.225-9.545-1.44c-1.103-0.073-1.936-1.027-1.861-2.129C66.164,2.9,67.108,2.04,68.22,2.142     c3.437,0.23,6.868,0.748,10.201,1.538c1.074,0.255,1.739,1.333,1.484,2.408C79.687,7.007,78.866,7.626,77.961,7.626z"/></g></g></g><g id="mass_email_extractioner"/><g id="reporting_and_analysis"/><g id="repetitive_tasks"/><g id="chatbots"/><g id="self-driving_cars"/><g id="neural_networks"/><g id="image_recognition_1_"/><g id="hologram"/><g id="virtual_reality"/><g id="industry_automation_1_"/><g id="fuzzy_logic"/><g id="brain_simulation"/><g id="automation"/><g id="robotics"/><g id="planning_and_optimization"/><g id="expert_systems"/><g id="extraction"/><g id="translation"/><g id="classification"/><g id="natural_language_processing"/><g id="vision"/><g id="image_recognition"/><g id="speech_to_text"/><g id="predictive_analysis"/><g id="text_to_speech"/><g id="deep_learning"/><g id="machine_learning"/><g id="artificial_intelligence"/></svg>