<?xml version="1.0" encoding="iso-8859-1"?>
<!-- Generator: Adobe Illustrator 22.1.0, SVG Export Plug-In . SVG Version: 6.00 Build 0)  -->
<svg xmlns="http://www.w3.org/2000/svg" xmlns:xlink="http://www.w3.org/1999/xlink" version="1.1" id="Layer_1_1_" x="0px" y="0px" viewBox="0 0 64 64" style="enable-background:new 0 0 64 64;" xml:space="preserve" width="512" height="512">
<linearGradient id="SVGID_1_" gradientUnits="userSpaceOnUse" x1="32" y1="63" x2="32" y2="1.0008">
	<stop offset="0" style="stop-color:#9F2FFF"/>
	<stop offset="1" style="stop-color:#0BB1D3"/>
</linearGradient>
<path style="fill:url(#SVGID_1_);" d="M13,51h2v2h-2V51z M9,53h2v-2H9V53z M5,53h2v-2H5V53z M63,20v32c0,2.757-2.243,5-5,5H45v4h4v2  H15v-2h4v-4H6c-2.757,0-5-2.243-5-5V20c0-2.757,2.243-5,5-5h12v7c0,0.552,0.448,1,1,1h7.236L33,26.382V23h8h4c0.552,0,1-0.448,1-1V8  c0-0.552-0.448-1-1-1h-8v1c0,1.563-0.754,3.04-2,3.979v0.267l3.39,0.968C40.516,13.822,42,15.79,42,18v3H22v-3  c0-2.21,1.484-4.178,3.61-4.786L29,12.246v-0.267C27.754,11.04,27,9.563,27,8V7h-8c-0.552,0-1,0.448-1,1v5h-2V8c0-1.654,1.346-3,3-3  h8.105c0.21-1.024,0.735-1.97,1.517-2.687c1.029-0.943,2.417-1.415,3.823-1.294c2.158,0.187,3.907,1.85,4.401,3.98H45  c1.654,0,3,1.346,3,3v7h10C60.757,15,63,17.243,63,20z M35,6.207c0-1.659-1.198-3.062-2.729-3.195  C31.421,2.94,30.6,3.213,29.974,3.788C29.354,4.355,29,5.161,29,6v2c0,1.068,0.562,2.033,1.503,2.581L31,10.87v2.884l-4.841,1.384  C24.888,15.501,24,16.678,24,18v1h16v-1c0-1.322-0.888-2.499-2.159-2.862L33,13.754V10.87l0.497-0.289C34.438,10.033,35,9.068,35,8  V6.207z M41,25h-0.002L41,27h16v-2H45H41z M41,41h-0.002L41,43h16v-2H41z M55,39v-2H43v2H55z M57,35v-2H41h-0.002L41,35H57z M55,31  v-2H43v2H55z M3,20v27h12.303l3,2H61V20c0-1.654-1.346-3-3-3H48v5c0,0.352-0.072,0.686-0.184,1H57c1.103,0,2,0.897,2,2v2  c0,1.103-0.897,2-2,2v2c1.103,0,2,0.897,2,2v2c0,1.103-0.897,2-2,2v2c1.103,0,2,0.897,2,2v2c0,1.103-0.897,2-2,2H41  c-1.103,0-2-0.897-2-2v-2c0-1.103,0.897-2,2-2v-2c-1.103,0-2-0.897-2-2v-2c0-1.103,0.897-2,2-2v-2c-1.103,0-2-0.897-2-2v-2h-4v4.618  L25.764,25H19c-1.654,0-3-1.346-3-3v-5H6C4.346,17,3,18.346,3,20z M61,52v-1H17.697l-3-2H3v3c0,1.654,1.346,3,3,3h15v6h22v-4H23v-2  h35C59.654,55,61,53.654,61,52z M7,43H5v2h2V43z M25,43H9v2h16V43z M7,39H5v2h2V39z M25,39H9v2h16V39z M7,35H5v2h2V35z M25,35H9v2  h16V35z M7,31H5v2h2V31z M25,31H9v2h16V31z M7,27H5v2h2V27z M25,27H9v2h16V27z"/>
</svg>
