<?xml version="1.0" ?><svg id="ICON" viewBox="0 0 512 512" xmlns="http://www.w3.org/2000/svg"><defs><style>.cls-1{fill:none;stroke:#5c6bc0;stroke-linecap:round;stroke-linejoin:round;stroke-width:16px;}.cls-2{fill:#5c6bc0;}</style></defs><title/><circle class="cls-1" cx="256" cy="256" r="192"/><path class="cls-1" d="M276.56,180.31l-13.27-12.2a10.78,10.78,0,0,0-14.59,0l-82.81,76.17a10.78,10.78,0,0,0,7.3,18.71h13.38v73a10.78,10.78,0,0,0,10.78,10.78h28.48a10.81,10.81,0,0,0,10.81-10.81V297.44a9.67,9.67,0,0,1,9.67-9.67h19.39a9.67,9.67,0,0,1,9.67,9.67v38.48a10.81,10.81,0,0,0,10.81,10.81h28.49A10.78,10.78,0,0,0,325.44,336V263h13.38a10.78,10.78,0,0,0,7.3-18.71l-25.49-23.44"/><circle class="cls-2" cx="299.06" cy="200.95" r="8"/></svg>