<svg height="512pt" viewBox="-14 0 511 512" width="512pt" xmlns="http://www.w3.org/2000/svg"><path d="m444.386719 221.113281c-3.253907 0-6.535157-1.039062-9.308594-3.1875l-63.304687-49.042969c-6.648438-5.148437-7.859376-14.707031-2.710938-21.351562 5.144531-6.644531 14.703125-7.859375 21.351562-2.710938l63.304688 49.042969c6.644531 5.148438 7.859375 14.707031 2.710938 21.351563-3 3.871094-7.496094 5.898437-12.042969 5.898437zm0 0" fill="#ff4fa1"/><path d="m332.289062 235.4375c-8.40625 0-15.21875-6.816406-15.21875-15.222656v-114.503906c0-6.050782-4.921874-10.972657-10.972656-10.972657h-56.308594c-8.402343 0-15.21875-6.8125-15.21875-15.21875s6.816407-15.21875 15.21875-15.21875h56.308594c22.835938 0 41.410156 18.578125 41.410156 41.410157v114.507812c0 8.402344-6.8125 15.21875-15.21875 15.21875zm0 0" fill="#54cbff"/><path d="m306.097656 512h-264.1875c-22.835937 0-41.410156-18.578125-41.410156-41.410156v-364.878906c0-22.835938 18.578125-41.410157 41.410156-41.410157h56.464844c8.40625 0 15.222656 6.8125 15.222656 15.21875s-6.816406 15.21875-15.222656 15.21875h-56.464844c-6.050781 0-10.972656 4.921875-10.972656 10.972657v364.878906c0 6.050781 4.921875 10.972656 10.972656 10.972656h264.1875c6.050782 0 10.972656-4.921875 10.972656-10.972656v-119.136719c0-8.40625 6.8125-15.21875 15.21875-15.21875s15.21875 6.8125 15.21875 15.21875v119.136719c0 22.835937-18.574218 41.410156-41.410156 41.410156zm0 0" fill="#54cbff"/><path d="m249.632812 125.800781h-151.257812c-8.402344 0-15.21875-6.8125-15.21875-15.21875v-62.125c0-8.40625 6.816406-15.21875 15.21875-15.21875h25.910156v-18.019531c0-8.40625 6.8125-15.21875 15.21875-15.21875h69c8.40625 0 15.21875 6.8125 15.21875 15.21875v18.019531h25.90625c8.40625 0 15.21875 6.8125 15.21875 15.21875v62.125c.003906 8.40625-6.8125 15.21875-15.214844 15.21875zm-136.035156-30.4375h120.8125v-31.6875h-25.90625c-8.40625 0-15.21875-6.8125-15.21875-15.21875v-18.019531h-38.5625v18.019531c0 8.40625-6.816406 15.21875-15.21875 15.21875h-25.90625zm0 0" fill="#0053ad"/><g fill="#0074f0"><path d="m260.25 231.722656h-172.484375c-8.402344 0-15.21875-6.8125-15.21875-15.21875s6.816406-15.21875 15.21875-15.21875h172.484375c8.40625 0 15.21875 6.8125 15.21875 15.21875s-6.8125 15.21875-15.21875 15.21875zm0 0"/><path d="m260.25 313.046875h-172.484375c-8.402344 0-15.21875-6.8125-15.21875-15.21875s6.816406-15.21875 15.21875-15.21875h172.484375c8.40625 0 15.21875 6.8125 15.21875 15.21875s-6.8125 15.21875-15.21875 15.21875zm0 0"/><path d="m187.679688 394.371094h-99.914063c-8.402344 0-15.21875-6.8125-15.21875-15.21875s6.816406-15.21875 15.21875-15.21875h99.914063c8.40625 0 15.21875 6.8125 15.21875 15.21875s-6.8125 15.21875-15.21875 15.21875zm0 0"/></g><path d="m260.417969 394.371094c-3.332031 0-6.601563-1.09375-9.289063-3.160156-3.570312-2.75-5.738281-6.941407-5.917968-11.445313l-2.515626-62.359375c-.144531-3.566406.972657-7.070312 3.148438-9.898438l138.078125-179.277343c18.589844-24.136719 53.359375-28.652344 77.5-10.058594s28.652344 53.359375 10.058594 77.496094l-138.074219 179.277343c-2.179688 2.828126-5.28125 4.800782-8.769531 5.574219l-60.929688 13.492188c-1.089843.242187-2.195312.359375-3.289062.359375zm12.914062-72.667969 1.558594 38.65625 37.773437-8.367187 134.703126-174.898438c8.351562-10.839844 6.324218-26.457031-4.519532-34.808594-10.839844-8.347656-26.457031-6.324218-34.808594 4.519532zm186.09375-135.320313h.007813zm0 0" fill="#feeb70"/></svg>