<?xml version="1.0" standalone="no"?><!DOCTYPE svg PUBLIC "-//W3C//DTD SVG 1.1//EN" "http://www.w3.org/Graphics/SVG/1.1/DTD/svg11.dtd"><svg t="1565317731326" class="icon" viewBox="0 0 1024 1024" version="1.1" xmlns="http://www.w3.org/2000/svg" p-id="806" xmlns:xlink="http://www.w3.org/1999/xlink" width="200" height="200"><defs><style type="text/css"></style></defs><path d="M812.9 714.2c0-79.4-64.9-143.9-144.4-143.3-77.9 0.6-141.6 64.2-142.2 142.2-0.6 79.5 63.9 144.4 143.3 144.4 26.5 0 51.3-7.2 72.6-19.8l33.6 35.1c9.5 10 25.4 10.3 35.3 0.8 10-9.5 10.3-25.4 0.8-35.3l-31.7-33.1c20.4-24.8 32.7-56.5 32.7-91z m-143.3 93.2c-51.4 0-93.3-41.8-93.3-93.3s41.8-93.3 93.3-93.3c51.4 0 93.3 41.8 93.3 93.3s-41.9 93.3-93.3 93.3zM713.2 443c0-17.1-13.1-31-29.2-31H321.4c-16.1 0-29.2 13.9-29.2 31s13.1 31 29.2 31H684c15.9 0 29-13.9 29.2-31zM321 529.9c-16.1 0-29.2 13.9-29.2 31s13.1 31 29.2 31h143.1c16 0 29.1-13.9 29.2-31 0-17.1-13.1-31-29.2-31H321z m363-245.4H321.4c-16.1 0-29.2 13.9-29.2 31s13.1 31 29.2 31H684c16 0 29.1-13.9 29.2-31 0-17.1-13.1-31-29.2-31z" p-id="807"></path><path d="M521.3 851.5H228.4s-0.1-0.1-0.1 0V170.6s0.1-0.1 0-0.1h566.9s0.1 0.1 0.1 0V527c0 16.6 13.4 30 30 30s30-13.4 30-30V170.5c0-33.1-26.9-60-60-60h-567c-33.1 0-60 26.9-60 60v681c0 33.1 26.9 60 60 60h293c16.6 0 30-13.4 30-30s-13.4-30-30-30z" p-id="808"></path></svg>