<svg height="454pt" viewBox="-1 0 454 454.537" width="454pt" xmlns="http://www.w3.org/2000/svg" xmlns:xlink="http://www.w3.org/1999/xlink"><linearGradient id="a"><stop offset="0" stop-color="#00efd1"/><stop offset="1" stop-color="#00acea"/></linearGradient><linearGradient id="b" gradientTransform="matrix(1 0 0 -1 -29.6315 485.268)" gradientUnits="userSpaceOnUse" x1="256" x2="256" xlink:href="#a" y1="516" y2="21.996"/><linearGradient id="c" gradientTransform="matrix(1 0 0 -1 -29.6315 485.268)" gradientUnits="userSpaceOnUse" x1="256.877" x2="256.877" xlink:href="#a" y1="516" y2="21.996"/><linearGradient id="d" gradientTransform="matrix(1 0 0 -1 -29.6315 485.268)" gradientUnits="userSpaceOnUse" x1="256.244" x2="256.244" xlink:href="#a" y1="516" y2="21.996"/><path d="m446.140625 188.011719-42.847656-4.132813c-4.601563-18.265625-11.972657-35.722656-21.855469-51.761718l27.332031-33.007813c2.304688-2.78125 2.113281-6.859375-.441406-9.414063l-45.554687-45.550781c-2.554688-2.554687-6.632813-2.746093-9.414063-.441406l-32.953125 27.289063c-16.027344-9.933594-33.511719-17.292969-51.816406-21.816407l-4.128906-42.847656c-.34375-3.589844-3.359376-6.328125-6.96875-6.328125h-62.25c-3.605469 0-6.621094 2.738281-6.964844 6.328125l-4.132813 42.847656c-18.304687 4.523438-35.785156 11.882813-51.8125 21.816407l-32.957031-27.289063c-2.78125-2.304687-6.859375-2.113281-9.414062.441406l-45.550782 45.550781c-2.554687 2.554688-2.746094 6.632813-.441406 9.414063l27.332031 33.007813c-9.882812 16.039062-17.253906 33.496093-21.855469 51.761718l-42.851562 4.132813c-3.585938.34375-6.324219 3.359375-6.324219 6.964843v64.582032c0 3.605468 2.738281 6.621094 6.328125 6.96875l42.847656 4.128906c4.519532 18.304688 11.878907 35.785156 21.8125 51.8125l-27.289062 32.957031c-2.304688 2.78125-2.113281 6.859375.441406 9.414063l45.554688 45.554687c2.554687 2.554688 6.628906 2.746094 9.414062.441407l33.003906-27.332032c16.039063 9.882813 33.496094 17.25 51.765626 21.855469l4.128906 42.847656c.34375 3.589844 3.359375 6.332031 6.96875 6.328125h62.25c3.605468.003906 6.621094-2.738281 6.964844-6.328125l4.132812-42.847656c18.265625-4.601563 35.722656-11.972656 51.761719-21.855469l33.007812 27.332032c2.78125 2.304687 6.859375 2.113281 9.414063-.441407l45.550781-45.554687c2.554687-2.554688 2.746094-6.632813.441406-9.414063l-27.292969-32.957031c9.933594-16.027344 17.296876-33.507812 21.816407-51.8125l42.847656-4.128906c3.589844-.347656 6.328125-3.363282 6.328125-6.96875v-64.582032c0-3.605468-2.738281-6.621093-6.328125-6.964843zm-7.671875 65.1875-41.53125 4c-3.03125.292969-5.527344 2.511719-6.171875 5.488281-4.355469 20.117188-12.417969 39.25-23.773437 56.414062-1.71875 2.574219-1.542969 5.964844.429687 8.347657l26.5 32-36.539063 36.539062-32-26.5c-2.351562-1.945312-5.695312-2.144531-8.257812-.492187-17.242188 11.289062-36.382812 19.363281-56.5 23.835937-2.980469.644531-5.199219 3.140625-5.492188 6.171875l-4 41.53125h-49.53125l-4-41.53125c-.292968-3.03125-2.511718-5.527344-5.488281-6.171875-20.117187-4.472656-39.261719-12.546875-56.5-23.835937-2.566406-1.652344-5.910156-1.453125-8.261719.492187l-31.996093 26.5-36.539063-36.539062 26.5-32c1.972656-2.382813 2.148438-5.773438.433594-8.347657-11.359375-17.164062-19.425781-36.292968-23.78125-56.410156-.644531-2.976562-3.140625-5.195312-6.171875-5.488281l-41.53125-4v-51.867187l41.53125-4c3.03125-.292969 5.527344-2.511719 6.171875-5.488282 4.472656-20.117187 12.546875-39.257812 23.835938-56.5 1.652343-2.566406 1.457031-5.90625-.492188-8.257812l-26.5-32 36.539062-36.542969 31.996094 26.5c2.382813 1.972656 5.773438 2.148437 8.347656.433594 17.164063-11.359375 36.292969-19.421875 56.410157-23.777344 2.976562-.640625 5.195312-3.136719 5.488281-6.167969l4-41.53125h49.535156l4 41.53125c.292969 3.03125 2.511719 5.527344 5.488282 6.167969 20.117187 4.355469 39.246093 12.417969 56.414062 23.777344 2.570312 1.714843 5.964844 1.539062 8.34375-.433594l32-26.5 36.542969 36.542969-26.5 32c-1.949219 2.351562-2.148438 5.691406-.492188 8.257812 11.289063 17.242188 19.363281 36.382813 23.835938 56.5.640625 2.976563 3.136719 5.195313 6.167969 5.488282l41.53125 4v51.863281zm0 0" fill="url(#b)"/><path d="m227.246094 90.269531c-75.542969 0-137 61.457031-137 137 0 75.539063 61.457031 137 137 137 75.542968 0 137-61.460937 137-137 0-75.542969-61.457032-137-137-137zm0 260c-67.929688 0-123-55.070312-123-123 0-67.933593 55.070312-123 123-123 67.929687 0 123 55.066407 123 123-.078125 67.898438-55.101563 122.921875-123 123zm0 0" fill="url(#c)"/><path d="m226.613281 173.308594c13.300781-.015625 24.082031-10.796875 24.097657-24.101563v-7.238281c0-13.3125-10.789063-24.101562-24.097657-24.101562-13.3125 0-24.101562 10.789062-24.101562 24.101562v7.238281c.015625 13.304688 10.796875 24.085938 24.101562 24.101563zm-12.101562-31.34375c0-6.679688 5.417969-12.097656 12.101562-12.097656 6.683594 0 12.097657 5.417968 12.097657 12.097656v7.242187c0 6.679688-5.414063 12.097657-12.097657 12.097657-6.683593 0-12.101562-5.417969-12.101562-12.097657zm0 0" fill="url(#d)"/><path d="m248.441406 177.234375h-4.574218c-2.050782 0-3.957032 1.046875-5.058594 2.777344l-4.199219 6.585937-4.71875-2.640625c-1.867187-1.042969-4.152344-1.015625-5.992187.078125l-3.910157 2.324219-3.601562-6.15625c-1.078125-1.839844-3.046875-2.96875-5.179688-2.96875h-5.152343c-13.640626.015625-24.699219 11.070313-24.710938 24.714844v47.707031c0 1.277344.40625 2.519531 1.160156 3.546875l14.03125 19.140625 3.125 48.199219c.34375 9.027343 7.777344 16.15625 16.808594 16.125h21.648438c9.03125.03125 16.460937-7.097657 16.808593-16.121094l3.125-48.214844 13.945313-19.15625c.746094-1.023437 1.148437-2.261719 1.148437-3.53125v-47.699219c-.015625-13.640624-11.066406-24.691406-24.703125-24.710937zm12.707032 70.460937-13.820313 18.984376c-.667969.917968-1.0625 2.007812-1.136719 3.140624l-3.242187 50.027344c-.003907.058594-.007813.113282-.007813.171875-.085937 2.597657-2.222656 4.660157-4.824218 4.652344h-21.648438c-2.601562.007813-4.738281-2.054687-4.820312-4.652344 0-.058593-.003907-.113281-.011719-.171875l-3.242188-50.027344c-.074219-1.140624-.472656-2.234374-1.148437-3.160156l-13.90625-18.964844v-45.746093c.007812-7.019531 5.695312-12.707031 12.714844-12.714844h1.714843l4.914063 8.402344c1.078125 1.835937 3.046875 2.964843 5.179687 2.964843 1.097657 0 2.175781-.304687 3.113281-.875l6.070313-3.601562 6.648437 3.71875c2.773438 1.550781 6.28125.667969 7.988282-2.015625l5.472656-8.585937h1.277344c7.015625.007812 12.699218 5.691406 12.707031 12.707031v45.753906zm0 0" fill="url(#c)"/></svg>